<svg width="32" height="32" xmlns="http://www.w3.org/2000/svg">

 <g>
  <title>background</title>
  <rect fill="none" id="canvas_background" height="402" width="582" y="-1" x="-1"/>
 </g>
 <g>
  <title>Layer 1</title>
  <path fill="#ffffff" stroke="#ffffff" id="svg_2" d="m26.5,27l-1.5,0c-0.553,0 -1,-0.448 -1,-1s0.447,-1 1,-1l1.5,0c0.172,0 0.5,-0.39 0.5,-1l0,-17c0,-0.551 -0.448,-1 -1,-1l-20,0c-0.552,0 -1,0.449 -1,1l0,17c0,0.551 0.448,1 1,1l9,0c0.553,0 1,0.448 1,1s-0.447,1 -1,1l-9,0c-1.654,0 -3,-1.346 -3,-3l0,-17c0,-1.654 1.346,-3 3,-3l20,0c1.654,0 3,1.346 3,3l0,17c0,1.654 -1.121,3 -2.5,3z"/>
  <path fill="#ffffff" stroke="#ffffff" id="svg_4" d="m21.124,23.732c0.481,-0.265 0.876,-0.032 0.876,0.518l0,3.5c0,0.55 -0.395,0.783 -0.876,0.518l-3.248,-1.786c-0.481,-0.265 -0.481,-0.699 0,-0.964l3.248,-1.786z"/>
  <path fill="#ffffff" stroke="#ffffff" id="svg_5" d="m21.502,29.345918c-0.29,0 -0.579,-0.079 -0.86,-0.233l-3.247,-1.786c-0.56,-0.308 -0.88,-0.803 -0.88,-1.358s0.32,-1.05 0.879,-1.358l3.249,-1.787c0.28,-0.154 0.569,-0.233 0.859,-0.233c0.868,0 1.498,0.685 1.498,1.627l0,3.5c0,0.944 -0.63,1.628 -1.498,1.628zm-2.427,-3.377l1.925,1.059l0,-2.117l-1.925,1.058z"/>
 </g>
</svg>