<svg width="32" height="32" xmlns="http://www.w3.org/2000/svg">

 <g>
  <title>background</title>
  <rect fill="none" id="canvas_background" height="402" width="582" y="-1" x="-1"/>
 </g>
 <g>
  <title>Layer 1</title>
  <path fill="#ffffff" id="svg_2" d="m4.993,2.496c-0.477,-0.273 -0.993,-0.046 -0.993,0.504l0,26c0,0.55 0.516,0.777 0.993,0.504l22.826,-13.008c0.478,-0.273 0.446,-0.719 -0.031,-0.992l-22.795,-13.008z"/>
  <path fill="#ffffff" id="svg_3" d="m4.585,30.62l0,0c-0.904,0 -1.585,-0.697 -1.585,-1.62l0,-26c0,-0.923 0.681,-1.62 1.585,-1.62c0.309,0 0.621,0.085 0.904,0.248l22.794,13.007c0.559,0.319 0.878,0.823 0.878,1.382c0,0.548 -0.309,1.039 -0.847,1.347l-22.826,13.009c-0.282,0.161 -0.594,0.247 -0.903,0.247zm0.415,-26.969l0,24.698l21.655,-12.34l-21.655,-12.358z"/>
 </g>
</svg>