<svg width="32" height="32" xmlns="http://www.w3.org/2000/svg">

 <g>
  <title>background</title>
  <rect fill="none" id="canvas_background" height="402" width="582" y="-1" x="-1"/>
 </g>
 <g>
  <title>Layer 1</title>
  <path fill="#ffffff" id="svg_3" d="m4.561,3.728c-0.377,-0.4 -0.561,-0.278 -0.561,0.272l0,24c0,0.55 0.184,0.672 0.561,0.272l10.816,-11.544c0.377,-0.4 0.408,-1.056 0.031,-1.456l-10.847,-11.544z"/>
  <path fill="#ffffff" id="svg_4" d="m4.202,29.507l0,0c-0.123,0 -1.202,-0.042 -1.202,-1.507l0,-24c0,-1.465 1.079,-1.507 1.202,-1.507c0.568,0 0.958,0.414 1.087,0.55l10.848,11.545c0.725,0.77 0.711,2.038 -0.031,2.826l-10.816,11.542c-0.13,0.138 -0.519,0.551 -1.088,0.551zm0.802,-23.847l-0.004,20.677l9.674,-10.389l-9.67,-10.288z"/>
  <path fill="#ffffff" id="svg_6" d="m17.561,3.728c-0.377,-0.4 -0.561,-0.278 -0.561,0.272l0,24c0,0.55 0.184,0.672 0.561,0.272l10.816,-11.544c0.377,-0.4 0.408,-1.056 0.031,-1.456l-10.847,-11.544z"/>
  <path fill="#ffffff" id="svg_7" d="m17.202,29.507l0,0c-0.123,0 -1.202,-0.042 -1.202,-1.507l0,-24c0,-1.465 1.079,-1.507 1.202,-1.507c0.568,0 0.958,0.414 1.087,0.55l10.848,11.545c0.725,0.77 0.711,2.038 -0.031,2.826l-10.816,11.542c-0.13,0.138 -0.519,0.551 -1.088,0.551zm0.802,-23.847l-0.004,20.677l9.674,-10.389l-9.67,-10.288z"/>
 </g>
</svg>