<svg width="32" height="32" xmlns="http://www.w3.org/2000/svg">

 <g>
  <title>background</title>
  <rect fill="none" id="canvas_background" height="402" width="582" y="-1" x="-1"/>
 </g>
 <g>
  <title>Layer 1</title>
  <path fill="#ffffff" id="svg_2" d="m3.073,27.634c-0.552,0 -1,-0.447 -1,-1s0.448,-1 1,-1c5.553,0 10.071,-4.321 10.071,-9.634s-4.518,-9.634 -10.071,-9.634c-0.552,0 -1,-0.448 -1,-1s0.448,-1 1,-1c6.656,0 12.071,5.219 12.071,11.634s-5.415,11.634 -12.071,11.634z"/>
  <path fill="#ffffff" id="svg_4" d="m24,27.634c-4,0 -9.989,-5.029 -9.989,-11.634c0,-6.445 4.989,-11.634 9.989,-11.634l0,2c-4,0 -7.989,4.045 -7.989,9.634c0,5.361 4.989,9.634 7.989,9.634l0,2z"/>
  <path fill="#ffffff" id="svg_6" d="m24.725,3.682c-0.504,-0.218 -0.725,0.053 -0.725,0.603l0,2.162c0,0.55 0.221,0.821 0.725,0.603l2.882,-1.287c0.505,-0.218 0.553,-0.576 0.048,-0.794l-2.93,-1.287z"/>
  <path fill="#ffffff" id="svg_7" d="m25.209651,8.125l0,0c-0.705,0 -1.416,-0.519 -1.416,-1.678l0,-2.162c0,-1.16 0.711,-1.679 1.416,-1.679c0.227,0 0.464,0.053 0.706,0.158l2.935,1.289c0.859,0.372 0.953,1.027 0.953,1.292c0,0.271 -0.098,0.942 -1.007,1.335l-2.87,1.282c-0.253,0.11 -0.49,0.163 -0.717,0.163zm0.588,-3.228l-0.002,0.934l1.055,-0.471l-1.053,-0.463z"/>
  <path fill="#ffffff" id="svg_9" d="m24.725,24.95c-0.504,-0.218 -0.725,0.054 -0.725,0.604l0,2.161c0,0.55 0.221,0.821 0.725,0.604l2.882,-1.288c0.505,-0.218 0.553,-0.575 0.048,-0.793l-2.93,-1.288z"/>
  <path fill="#ffffff" id="svg_10" d="m25.091918,29.394l0,0c-0.705,0 -1.416,-0.52 -1.416,-1.679l0,-2.161c0,-1.159 0.711,-1.679 1.416,-1.679c0.227,0 0.464,0.053 0.705,0.157l2.936,1.289c0.859,0.371 0.953,1.027 0.953,1.292c0,0.271 -0.098,0.943 -1.007,1.335l-2.87,1.283c-0.253,0.11 -0.49,0.163 -0.717,0.163zm0.588,-3.229l-0.002,0.934l1.055,-0.471l-1.053,-0.463z"/>
 </g>
</svg>